<svg width="227" height="37" fill="none" xmlns="http://www.w3.org/2000/svg"><path fill-rule="evenodd" clip-rule="evenodd" d="M121.318 0c-4.727 0-8.097 3.333-8.097 7.988a7.923 7.923 0 002.275 5.764c1.442 1.424 3.469 2.243 5.822 2.243s4.381-.819 5.822-2.243a7.936 7.936 0 002.276-5.764c0-4.655-3.37-7.988-8.098-7.988zm0 13.75c-3.277 0-5.617-2.401-5.617-5.762 0-3.36 2.34-5.74 5.617-5.74s5.596 2.38 5.596 5.74c0 3.361-2.322 5.761-5.596 5.761zM18.27.034V8.34l.021.016a9.964 9.964 0 017.008 2.902 9.892 9.892 0 012.913 6.983h8.327a18.192 18.192 0 00-5.356-12.868A18.325 18.325 0 0018.27.035zM5.363 31.12a18.325 18.325 0 0012.928 5.333v-8.34a9.952 9.952 0 01-7.027-2.88 9.854 9.854 0 01-2.921-6.99H0A18.192 18.192 0 005.363 31.12zM45.925.043c-1.841 6.922-4.694 18.148-9.152 36.407h8.489C48.142 24.712 51.93 9.56 54.339.392c2.418 9.103 6.2 24.283 9.077 36.058h8.538C67.481 18.132 64.634 6.935 62.802.043H45.925zm106.082.465c2.551 0 4.703.723 6.222 2.033a6.966 6.966 0 012.387 5.446 6.995 6.995 0 01-2.384 5.455c-1.522 1.313-3.674 2.045-6.225 2.045h-4.929V.508h4.929zm0 12.73c1.879 0 3.416-.513 4.476-1.415a4.838 4.838 0 001.675-3.836 4.81 4.81 0 00-1.681-3.818c-1.06-.9-2.61-1.415-4.47-1.415h-2.449v10.484h2.449zm-46.25 0V.507h-2.48v14.98h9.738v-2.25h-7.258zM141.615.508h2.483v9.15c0 3.663-2.589 6.335-6.2 6.335-3.612 0-6.238-2.669-6.238-6.336V.507h2.499v9.15c0 2.42 1.565 4.09 3.736 4.09 2.17 0 3.72-1.668 3.72-4.09V.507zm.358 21.004h12.028v2.246h-4.783V36.49h-2.48V23.756h-4.765V21.51zm84.476 8.66a3.78 3.78 0 00-1.416-1.319c-1.123-.636-2.573-.89-3.872-1.103-1.076-.166-2.037-.327-2.732-.667a1.968 1.968 0 01-.778-.618 1.651 1.651 0 01-.276-.976 1.895 1.895 0 01.797-1.606c.539-.39 1.364-.618 2.48-.618 1.191 0 2.09.287 2.682.782a2.657 2.657 0 01.93 2.162v.309h2.421v-.31c0-1.593-.583-2.9-1.64-3.802-1.057-.902-2.567-1.402-4.387-1.402-1.819 0-3.224.432-4.225 1.235a4.144 4.144 0 00-1.55 3.352 3.88 3.88 0 00.533 2.073c.342.543.815.992 1.376 1.306 1.095.643 2.515.927 3.811 1.122 1.097.176 2.089.336 2.811.686.32.139.597.358.806.636.204.3.306.657.292 1.02a1.958 1.958 0 01-.85 1.668c-.567.404-1.426.651-2.56.651-1.302 0-2.294-.309-2.955-.868a2.975 2.975 0 01-1.029-2.37v-.308h-2.458v.309a5.082 5.082 0 001.748 4.016c1.125.954 2.731 1.46 4.675 1.46 1.814 0 3.289-.432 4.319-1.235a4.223 4.223 0 001.593-3.438 3.976 3.976 0 00-.546-2.147zm-49.209-.304v4.374h8.219v2.248h-10.717V21.512h10.512v2.246h-8.014v3.864h7.196v2.246h-7.196zm-40.736.865c2.598-.279 4.486-2.036 4.486-4.55a4.31 4.31 0 00-1.55-3.398c-.977-.816-2.35-1.258-3.968-1.258h-6.57v14.979h2.48v-5.634h2.208l4.895 5.517.093.104h3.193l-.474-.518-4.793-5.242zm-5.122-6.972h4.093a3.491 3.491 0 012.244.667 2.38 2.38 0 010 3.524 3.44 3.44 0 01-2.244.67h-4.093v-4.861zm-36.53-2.249l.078.2 5.364 14.362.155.417h-2.418l-.075-.201-1.15-3.018h-6.913l-1.15 3.018-.075.2h-2.45l.159-.42 5.438-14.357.074-.201h2.964zm-4.178 9.613h5.357l-2.672-7.034-2.685 7.034zm77.852-9.613h-.207l-.078.191-4.588 11.294-4.57-11.294-.077-.191h-3.463V36.49h2.502V25.327l4.43 10.972.077.194h2.198l.078-.194 4.439-11V36.49h2.481V21.512h-3.222zm-47.029 0l.077.2 5.376 14.362.155.417h-2.437l-.077-.201-1.15-3.018h-6.911l-1.15 3.018-.077.2h-2.44l.158-.42 5.438-14.357.074-.201h2.964zm-4.179 9.613h5.357l-2.669-7.034-2.688 7.034zm84.969-9.613h-.31v2.246h4.765V36.49h2.48V23.756h4.783V21.51h-11.718zm-4.354 0h2.48v14.979h-3.15l-.086-.158-6.455-11.262v11.42h-2.48V21.512h3.168l.09.155 6.433 11.225v-11.38zm-84.139 4.713a4.332 4.332 0 00-.355-1.906 4.337 4.337 0 00-1.155-1.56c-.971-.816-2.347-1.236-3.975-1.236h-6.051v14.979h2.437v-5.56h3.614c1.591 0 2.958-.436 3.938-1.254a4.383 4.383 0 001.55-3.45l-.003-.013zm-3.234 1.76a3.45 3.45 0 01-2.251.677h-3.614V23.76h3.614a3.419 3.419 0 012.251.68 2.238 2.238 0 01.772 1.782 2.201 2.201 0 01-.772 1.764zm-9.95-17.495h-2.184a4.945 4.945 0 01-1.816 2.366 4.973 4.973 0 01-2.85.896c-3.053 0-5.291-2.385-5.291-5.76 0-3.377 2.216-5.74 5.291-5.74a4.848 4.848 0 012.946.974 4.818 4.818 0 011.745 2.557h2.517l-.077-.328C100.134 2.292 97.146 0 93.761 0c-4.514 0-7.77 3.364-7.773 7.985-.018 4.634 3.259 8.007 7.772 8.007 3.358 0 6.356-2.178 7.109-5.202l.075-.309h-.332l-.002.01z" fill="#EEEEED"/></svg>